<?xml version="1.0" encoding="UTF-8" standalone="no"?>
<svg
   viewBox="215 117 320 320"
   version="1.1"
   id="svg9"
   sodipodi:docname="favicon.svg"
   inkscape:version="1.4.2 (ebf0e940, 2025-05-08)"
   xmlns:inkscape="http://www.inkscape.org/namespaces/inkscape"
   xmlns:sodipodi="http://sodipodi.sourceforge.net/DTD/sodipodi-0.dtd"
   xmlns="http://www.w3.org/2000/svg"
   xmlns:svg="http://www.w3.org/2000/svg">
  <sodipodi:namedview
     id="namedview9"
     pagecolor="#ffffff"
     bordercolor="#000000"
     borderopacity="0.25"
     inkscape:showpageshadow="2"
     inkscape:pageopacity="0.0"
     inkscape:pagecheckerboard="0"
     inkscape:deskcolor="#d1d1d1"
     inkscape:zoom="0.9660504"
     inkscape:cx="223.07325"
     inkscape:cy="174.93911"
     inkscape:window-width="1176"
     inkscape:window-height="575"
     inkscape:window-x="0"
     inkscape:window-y="33"
     inkscape:window-maximized="0"
     inkscape:current-layer="svg9" />
  <defs
     id="defs4">
    <clipPath
       clipPathUnits="userSpaceOnUse"
       id="cp9">
      <path
         d="m 3829.11,3799.3 c 0,-246.55 -78.15,-449.76 -234.41,-609.69 -156.27,-159.93 -360.37,-239.88 -612.41,-239.88 -253.85,0 -459.6,79.95 -617.22,239.88 -157.66,159.93 -236.45,363.14 -236.45,609.69 v 360.16 c 0,245.59 78.57,448.6 235.77,608.99 157.15,160.35 362.19,240.55 615.15,240.55 251.1,0 455.46,-80.2 613.12,-240.55 157.62,-160.39 236.45,-363.4 236.45,-608.99 z"
         id="path1" />
    </clipPath>
    <clipPath
       clipPathUnits="userSpaceOnUse"
       id="cp11">
      <path
         d="m 3829.11,3799.3 c 0,-246.55 -78.15,-449.76 -234.41,-609.69 -156.27,-159.93 -360.37,-239.88 -612.41,-239.88 -253.85,0 -459.6,79.95 -617.22,239.88 -157.66,159.93 -236.45,363.14 -236.45,609.69 v 360.16 c 0,245.59 78.57,448.6 235.77,608.99 157.15,160.35 362.19,240.55 615.15,240.55 251.1,0 455.46,-80.2 613.12,-240.55 157.62,-160.39 236.45,-363.4 236.45,-608.99 z"
         id="path2" />
    </clipPath>
    <clipPath
       clipPathUnits="userSpaceOnUse"
       id="cp13">
      <path
         d="m 3829.11,3799.3 c 0,-246.55 -78.15,-449.76 -234.41,-609.69 -156.27,-159.93 -360.37,-239.88 -612.41,-239.88 -253.85,0 -459.6,79.95 -617.22,239.88 -157.66,159.93 -236.45,363.14 -236.45,609.69 v 360.16 c 0,245.59 78.57,448.6 235.77,608.99 157.15,160.35 362.19,240.55 615.15,240.55 251.1,0 455.46,-80.2 613.12,-240.55 157.62,-160.39 236.45,-363.4 236.45,-608.99 z"
         id="path3" />
    </clipPath>
    <clipPath
       clipPathUnits="userSpaceOnUse"
       id="cp15">
      <path
         d="m 3829.11,3799.3 c 0,-246.55 -78.15,-449.76 -234.41,-609.69 -156.27,-159.93 -360.37,-239.88 -612.41,-239.88 -253.85,0 -459.6,79.95 -617.22,239.88 -157.66,159.93 -236.45,363.14 -236.45,609.69 v 360.16 c 0,245.59 78.57,448.6 235.77,608.99 157.15,160.35 362.19,240.55 615.15,240.55 251.1,0 455.46,-80.2 613.12,-240.55 157.62,-160.39 236.45,-363.4 236.45,-608.99 z"
         id="path4" />
    </clipPath>
  </defs>
  <g
     transform="matrix(0.13333333,0,0,-0.13333333,-23.808282,792.67153)"
     id="g9">
    <!-- black bean -->
    <path
       d="m 3744.4,3218.4 c -319.98,-381.34 -744.18,-552.18 -947.49,-381.58 -203.3,170.59 -108.72,618.01 211.26,999.35 319.97,381.34 744.18,552.18 947.49,381.58 203.3,-170.59 108.72,-618.02 -211.26,-999.35"
       fill="#1d1d1b"
       clip-path="url(#cp9)"
       id="path5" />
    <!-- green bean -->
    <path
       d="m 2949.56,3836.17 c 319.98,-381.34 414.56,-828.76 211.25,-999.35 -203.31,-170.6 -627.51,0.24 -947.48,381.58 -319.99,381.33 -414.57,828.76 -211.26,999.35 203.31,170.6 627.51,-0.24 947.49,-381.58"
       fill="#00a984"
       clip-path="url(#cp11)"
       id="path6" />
    <!-- green dot (left, above) -->
    <path
       d="m 2820.63,4671.97 c 0,-164.08 -133.01,-297.1 -297.09,-297.1 -164.08,0 -297.1,133.02 -297.1,297.1 0,164.08 133.02,297.1 297.1,297.1 164.08,0 297.09,-133.02 297.09,-297.1"
       fill="#00a984"
       clip-path="url(#cp13)"
       id="path7" />
    <!-- black dot (right, above) -->
    <path
       d="m 3766.97,4671.97 c 0,-164.08 -133.01,-297.1 -297.1,-297.1 -164.08,0 -297.09,133.02 -297.09,297.1 0,164.08 133.01,297.1 297.09,297.1 164.09,0 297.1,-133.02 297.1,-297.1"
       fill="#1d1d1b"
       clip-path="url(#cp15)"
       id="path8" />
    <!-- mint drop overlay -->
    <path
       d="m 2796.91,2836.82 c 49.19,-41.28 111.51,-62.15 181.95,-65.32 70.45,3.17 132.76,24.04 181.95,65.32 196.82,165.14 113.8,589.55 -181.95,962.45 -295.74,-372.9 -378.76,-797.31 -181.95,-962.45"
       fill="#86c8af"
       id="path9" />
  </g>
</svg>
