<?xml version="1.0" encoding="UTF-8" standalone="no"?>
<!-- Created with Inkscape (http://www.inkscape.org/) -->

<svg
   version="1.1"
   id="svg1"
   width="793.70667"
   height="793.70667"
   viewBox="0 0 793.70667 793.70667"
   xmlns="http://www.w3.org/2000/svg"
   xmlns:svg="http://www.w3.org/2000/svg">
  <defs
     id="defs1">
    <clipPath
       clipPathUnits="userSpaceOnUse"
       id="clipPath9">
      <path
         d="m 3829.11,3799.3 c 0,-246.55 -78.15,-449.76 -234.41,-609.69 -156.27,-159.93 -360.37,-239.88 -612.41,-239.88 -253.85,0 -459.6,79.95 -617.22,239.88 -157.66,159.93 -236.45,363.14 -236.45,609.69 v 360.16 c 0,245.59 78.57,448.6 235.77,608.99 157.15,160.35 362.19,240.55 615.15,240.55 251.1,0 455.46,-80.2 613.12,-240.55 157.62,-160.39 236.45,-363.4 236.45,-608.99 z"
         transform="translate(0,2.5e-5)"
         id="path9" />
    </clipPath>
    <clipPath
       clipPathUnits="userSpaceOnUse"
       id="clipPath11">
      <path
         d="m 3829.11,3799.3 c 0,-246.55 -78.15,-449.76 -234.41,-609.69 -156.27,-159.93 -360.37,-239.88 -612.41,-239.88 -253.85,0 -459.6,79.95 -617.22,239.88 -157.66,159.93 -236.45,363.14 -236.45,609.69 v 360.16 c 0,245.59 78.57,448.6 235.77,608.99 157.15,160.35 362.19,240.55 615.15,240.55 251.1,0 455.46,-80.2 613.12,-240.55 157.62,-160.39 236.45,-363.4 236.45,-608.99 z"
         transform="translate(0,2.5e-5)"
         id="path11" />
    </clipPath>
    <clipPath
       clipPathUnits="userSpaceOnUse"
       id="clipPath13">
      <path
         d="m 3829.11,3799.3 c 0,-246.55 -78.15,-449.76 -234.41,-609.69 -156.27,-159.93 -360.37,-239.88 -612.41,-239.88 -253.85,0 -459.6,79.95 -617.22,239.88 -157.66,159.93 -236.45,363.14 -236.45,609.69 v 360.16 c 0,245.59 78.57,448.6 235.77,608.99 157.15,160.35 362.19,240.55 615.15,240.55 251.1,0 455.46,-80.2 613.12,-240.55 157.62,-160.39 236.45,-363.4 236.45,-608.99 z"
         transform="translate(0,2.5e-5)"
         id="path13" />
    </clipPath>
    <clipPath
       clipPathUnits="userSpaceOnUse"
       id="clipPath15">
      <path
         d="m 3829.11,3799.3 c 0,-246.55 -78.15,-449.76 -234.41,-609.69 -156.27,-159.93 -360.37,-239.88 -612.41,-239.88 -253.85,0 -459.6,79.95 -617.22,239.88 -157.66,159.93 -236.45,363.14 -236.45,609.69 v 360.16 c 0,245.59 78.57,448.6 235.77,608.99 157.15,160.35 362.19,240.55 615.15,240.55 251.1,0 455.46,-80.2 613.12,-240.55 157.62,-160.39 236.45,-363.4 236.45,-608.99 z"
         transform="translate(0,2.5e-5)"
         id="path15" />
    </clipPath>
  </defs>
  <g
     id="g1">
    <g
       id="group-R5">
      <path
         id="path2"
         d="M 1533.24,1934.48 H 1194.47 V 1562.05 H 979.633 v 925.43 h 618.447 v -165.26 h -403.61 v -222.46 h 338.77 v -165.28"
         style="fill:#1d1d1b;fill-opacity:1;fill-rule:nonzero;stroke:none"
         transform="matrix(0.13333333,0,0,-0.13333333,0,793.70667)" />
      <path
         id="path3"
         d="m 1933.69,1562.05 h -214.21 v 925.43 h 214.21 v -925.43"
         style="fill:#1d1d1b;fill-opacity:1;fill-rule:nonzero;stroke:none"
         transform="matrix(0.13333333,0,0,-0.13333333,0,793.70667)" />
      <path
         id="path4"
         d="m 2866.11,1562.05 h -214.23 l -338.76,582.21 -3.82,-1.26 v -580.95 h -214.83 v 925.43 h 214.83 l 338.77,-581.57 3.81,1.26 v 580.31 h 214.23 v -925.43"
         style="fill:#1d1d1b;fill-opacity:1;fill-rule:nonzero;stroke:none"
         transform="matrix(0.13333333,0,0,-0.13333333,0,793.70667)" />
      <path
         id="path5"
         d="m 3240.48,1562.05 h -214.21 v 180.52 h 214.21 v -180.52"
         style="fill:#1d1d1b;fill-opacity:1;fill-rule:nonzero;stroke:none"
         transform="matrix(0.13333333,0,0,-0.13333333,0,793.70667)" />
      <path
         id="path6"
         d="m 4101.98,1874.1 1.25,-3.81 c 1.71,-105.51 -28.07,-185.49 -89.27,-239.91 -61.24,-54.46 -147.99,-81.7 -260.28,-81.7 -114.44,0 -206.27,34.95 -275.54,104.89 -69.3,69.9 -103.93,161.45 -103.93,274.59 v 193.22 c 0,112.68 33.37,204.11 100.13,274.23 66.7,70.16 154.95,105.2 264.71,105.2 117.37,0 208.16,-27.32 272.36,-81.96 64.2,-54.69 95.42,-134.13 93.76,-238.39 l -1.94,-3.82 h -209.09 c 0,56.8 -12.07,97.49 -36.25,122.07 -24.13,24.54 -63.75,36.88 -118.84,36.88 -48.31,0 -85.41,-19.43 -111.25,-58.19 -25.84,-38.76 -38.76,-90.35 -38.76,-154.76 v -194.48 c 0,-64.82 14.18,-116.77 42.57,-155.76 28.4,-38.98 69.09,-58.44 122.07,-58.44 49.12,0 84.61,12.28 106.46,36.87 21.79,24.53 32.74,65.67 32.74,123.27 h 209.1"
         style="fill:#00a984;fill-opacity:1;fill-rule:nonzero;stroke:none"
         transform="matrix(0.13333333,0,0,-0.13333333,0,793.70667)" />
      <path
         id="path7"
         d="m 4776.99,2109.31 c 0,66.08 -15.56,120.32 -46.74,162.71 -31.13,42.35 -75.09,63.57 -131.89,63.57 -58.05,0 -102.41,-21.09 -133.15,-63.26 -30.73,-42.16 -46.07,-96.54 -46.07,-163.02 v -167.82 c 0,-66.94 15.57,-121.63 46.7,-163.97 31.18,-42.39 75.77,-63.56 133.82,-63.56 56.35,0 100,21.17 130.91,63.56 30.95,42.34 46.42,97.03 46.42,163.97 z m 214.17,-167.82 c 0,-114 -36.11,-207.93 -108.34,-281.86 -72.26,-73.97 -166.66,-110.95 -283.16,-110.95 -117.39,0 -212.5,36.98 -285.4,110.95 -72.9,73.93 -109.33,167.86 -109.33,281.86 v 166.52 c 0,113.58 36.34,207.43 109.02,281.59 72.67,74.15 167.46,111.21 284.41,111.21 116.1,0 210.62,-37.06 283.48,-111.21 72.9,-74.16 109.32,-168.01 109.32,-281.59 v -166.52"
         style="fill:#00a984;fill-opacity:1;fill-rule:nonzero;stroke:none"
         transform="matrix(0.13333333,0,0,-0.13333333,0,793.70667)" />
      <path
         id="path8"
         d="m 3744.4,3218.4 c -319.98,-381.34 -744.18,-552.18 -947.49,-381.58 -203.3,170.59 -108.72,618.01 211.26,999.35 319.97,381.34 744.18,552.18 947.49,381.58 203.3,-170.59 108.72,-618.02 -211.26,-999.35"
         style="fill:#1d1d1b;fill-opacity:1;fill-rule:nonzero;stroke:none"
         transform="matrix(0.13333333,0,0,-0.13333333,0,793.70667)"
         clip-path="url(#clipPath9)" />
      <path
         id="path10"
         d="m 2949.56,3836.17 c 319.98,-381.34 414.56,-828.76 211.25,-999.35 -203.31,-170.6 -627.51,0.24 -947.48,381.58 -319.99,381.33 -414.57,828.76 -211.26,999.35 203.31,170.6 627.51,-0.24 947.49,-381.58"
         style="fill:#00a984;fill-opacity:1;fill-rule:nonzero;stroke:none"
         transform="matrix(0.13333333,0,0,-0.13333333,0,793.70667)"
         clip-path="url(#clipPath11)" />
      <path
         id="path12"
         d="m 2820.63,4671.97 c 0,-164.08 -133.01,-297.1 -297.09,-297.1 -164.08,0 -297.1,133.02 -297.1,297.1 0,164.08 133.02,297.1 297.1,297.1 164.08,0 297.09,-133.02 297.09,-297.1"
         style="fill:#00a984;fill-opacity:1;fill-rule:nonzero;stroke:none"
         transform="matrix(0.13333333,0,0,-0.13333333,0,793.70667)"
         clip-path="url(#clipPath13)" />
      <path
         id="path14"
         d="m 3766.97,4671.97 c 0,-164.08 -133.01,-297.1 -297.1,-297.1 -164.08,0 -297.09,133.02 -297.09,297.1 0,164.08 133.01,297.1 297.09,297.1 164.09,0 297.1,-133.02 297.1,-297.1"
         style="fill:#1d1d1b;fill-opacity:1;fill-rule:nonzero;stroke:none"
         transform="matrix(0.13333333,0,0,-0.13333333,0,793.70667)"
         clip-path="url(#clipPath15)" />
      <path
         id="path16"
         d="m 2796.91,2836.82 c 49.19,-41.28 111.51,-62.15 181.95,-65.32 70.45,3.17 132.76,24.04 181.95,65.32 196.82,165.14 113.8,589.55 -181.95,962.45 -295.74,-372.9 -378.76,-797.31 -181.95,-962.45"
         style="fill:#86c8af;fill-opacity:1;fill-rule:nonzero;stroke:none"
         transform="matrix(0.13333333,0,0,-0.13333333,0,793.70667)" />
      <path
         id="path17"
         d="M 1160.56,1110.4 H 1022.81 V 965.898 h -44.205 v 326.682 h 204.835 v -34.82 h -160.63 v -112.59 h 137.75 v -34.77"
         style="fill:#1d1d1b;fill-opacity:1;fill-rule:nonzero;stroke:none"
         transform="matrix(0.13333333,0,0,-0.13333333,0,793.70667)" />
      <path
         id="path18"
         d="m 1281.03,965.898 h -44.43 v 326.682 h 44.43 V 965.898"
         style="fill:#1d1d1b;fill-opacity:1;fill-rule:nonzero;stroke:none"
         transform="matrix(0.13333333,0,0,-0.13333333,0,793.70667)" />
      <path
         id="path19"
         d="m 1609.01,965.898 h -44.19 l -157.26,249.472 -1.34,-0.45 V 965.898 H 1362 v 326.682 h 44.22 l 157.25,-249.25 1.35,0.45 v 248.8 h 44.19 V 965.898"
         style="fill:#1d1d1b;fill-opacity:1;fill-rule:nonzero;stroke:none"
         transform="matrix(0.13333333,0,0,-0.13333333,0,793.70667)" />
      <path
         id="path20"
         d="m 1744.08,1087.07 h 97.59 l -47.57,140.19 h -1.35 z m 110.16,-37.01 H 1731.3 l -29.19,-84.162 h -45.08 l 117.78,326.682 h 37.91 l 115.31,-326.682 h -45.08 l -28.71,84.162"
         style="fill:#1d1d1b;fill-opacity:1;fill-rule:nonzero;stroke:none"
         transform="matrix(0.13333333,0,0,-0.13333333,0,793.70667)" />
      <path
         id="path21"
         d="m 2223.04,965.898 h -44.19 l -157.26,249.472 -1.35,-0.45 V 965.898 h -44.2 v 326.682 h 44.2 l 157.26,-249.25 1.35,0.45 v 248.8 h 44.19 V 965.898"
         style="fill:#1d1d1b;fill-opacity:1;fill-rule:nonzero;stroke:none"
         transform="matrix(0.13333333,0,0,-0.13333333,0,793.70667)" />
      <path
         id="path22"
         d="m 2532.64,1070.47 0.45,-1.35 c 0.61,-30.68 -10.16,-56.34 -32.3,-76.972 -22.14,-20.648 -51.37,-30.957 -87.72,-30.957 -36.95,0 -67.05,13.098 -90.29,39.249 -23.26,26.2 -34.9,59.4 -34.9,99.64 v 58.09 c 0,40.25 11.64,73.48 34.9,99.73 23.24,26.24 53.34,39.39 90.29,39.39 36.94,0 66.32,-9.88 88.17,-29.53 21.83,-19.64 32.46,-45.71 31.85,-78.18 l -0.45,-1.35 h -42.39 c 0,22.88 -6.73,41 -20.19,54.28 -13.46,13.33 -32.46,19.96 -56.99,19.96 -24.68,0 -44.35,-9.91 -59,-29.82 -14.67,-19.88 -21.98,-44.55 -21.98,-74.03 v -58.54 c 0,-29.79 7.31,-54.59 21.98,-74.51 14.65,-19.88 34.32,-29.84 59,-29.84 24.53,0 43.53,6.64 56.99,19.88 13.46,13.23 20.19,31.53 20.19,54.86 h 42.39"
         style="fill:#1d1d1b;fill-opacity:1;fill-rule:nonzero;stroke:none"
         transform="matrix(0.13333333,0,0,-0.13333333,0,793.70667)" />
      <path
         id="path23"
         d="m 2768.9,1117.35 h -134.18 v -116.91 h 157.06 v -34.542 h -201.27 v 326.682 h 198.8 v -34.82 h -154.59 v -105.64 h 134.18 v -34.77"
         style="fill:#1d1d1b;fill-opacity:1;fill-rule:nonzero;stroke:none"
         transform="matrix(0.13333333,0,0,-0.13333333,0,793.70667)" />
      <path
         id="path24"
         d="m 3007.16,1218.73 c 0,-7.89 2.01,-16.19 6.05,-24.75 4.04,-8.62 10.09,-17.99 18.17,-28.18 l 30.95,21.31 c 8.53,5.69 14.31,11.85 17.37,18.53 3.09,6.64 4.62,13.99 4.62,22.07 0,9.15 -3.64,17.22 -10.9,24.22 -7.23,7.05 -16.69,10.54 -28.36,10.54 -12.11,0 -21.49,-4.21 -28.04,-12.64 -6.59,-8.44 -9.86,-18.8 -9.86,-31.1 z m 33.64,-223 c 10.76,0 21.36,1.84 31.86,5.52 10.45,3.68 20.31,8.93 29.6,15.79 l -80.97,97.62 -8.98,-6.5 c -13.64,-10.19 -22.65,-19.93 -27.05,-29.16 -4.39,-9.29 -6.64,-17.68 -6.64,-25.12 0,-16.92 5.34,-30.82 15.97,-41.77 10.6,-10.9 26.03,-16.38 46.21,-16.38 z m -106.36,58.15 c 0,18.21 5.29,34.18 15.83,47.86 10.55,13.68 26.29,27.41 47.24,41.18 -11.67,14.81 -20.37,28 -26.06,39.61 -5.65,11.58 -8.53,23.51 -8.53,35.76 0,25.29 7.31,44.77 21.89,58.45 14.58,13.68 34.68,20.55 60.25,20.55 23.64,0 42.84,-6.82 57.65,-20.41 14.8,-13.65 22.2,-30.01 22.2,-49.17 0,-14.62 -3.89,-27.32 -11.75,-38 -7.85,-10.72 -19.52,-21.66 -34.9,-32.88 l -24.45,-17.94 76.27,-91.75 c 6.14,9.7 10.9,20.46 14.34,32.3 3.46,11.8 5.17,24.27 5.17,37.47 h 39.47 c 0,-19.75 -2.91,-38 -8.75,-54.74 -5.83,-16.78 -14.26,-31.81 -25.34,-45.13 l 41.49,-50.02 -0.44,-1.122 h -51.37 l -19.06,22.883 c -11.98,-8.972 -25.22,-15.793 -39.7,-20.5 -14.49,-4.711 -29.57,-7.09 -45.09,-7.09 -32.48,0 -58.32,8.618 -77.52,25.789 -19.24,17.23 -28.84,39.52 -28.84,66.9"
         style="fill:#1d1d1b;fill-opacity:1;fill-rule:nonzero;stroke:none"
         transform="matrix(0.13333333,0,0,-0.13333333,0,793.70667)" />
      <path
         id="path25"
         d="m 3591.78,1070.47 0.45,-1.35 c 0.62,-30.68 -10.14,-56.34 -32.3,-76.972 -22.12,-20.648 -51.37,-30.957 -87.7,-30.957 -36.97,0 -67.07,13.098 -90.31,39.249 -23.24,26.2 -34.9,59.4 -34.9,99.64 v 58.09 c 0,40.25 11.66,73.48 34.9,99.73 23.24,26.24 53.34,39.39 90.31,39.39 36.92,0 66.3,-9.88 88.15,-29.53 21.85,-19.64 32.47,-45.71 31.85,-78.18 l -0.45,-1.35 h -42.4 c 0,22.88 -6.72,41 -20.18,54.28 -13.46,13.33 -32.43,19.96 -56.97,19.96 -24.68,0 -44.37,-9.91 -59,-29.82 -14.67,-19.88 -21.98,-44.55 -21.98,-74.03 v -58.54 c 0,-29.79 7.31,-54.59 21.98,-74.51 14.63,-19.88 34.32,-29.84 59,-29.84 24.54,0 43.51,6.64 56.97,19.88 13.46,13.23 20.18,31.53 20.18,54.86 h 42.4"
         style="fill:#1d1d1b;fill-opacity:1;fill-rule:nonzero;stroke:none"
         transform="matrix(0.13333333,0,0,-0.13333333,0,793.70667)" />
      <path
         id="path26"
         d="m 3854.93,1158.62 c 0,29.93 -8.07,54.47 -24.23,73.58 -16.14,19.15 -37.81,28.71 -65.05,28.71 -25.74,0 -46.25,-9.56 -61.59,-28.71 -15.34,-19.11 -22.97,-43.65 -22.97,-73.58 v -58.54 c 0,-30.24 7.63,-54.91 22.97,-74.02 15.34,-19.15 35.85,-28.751 61.59,-28.751 27.38,0 49.09,9.551 65.19,28.621 16.06,19.06 24.09,43.78 24.09,74.15 z m 44.19,-58.54 c 0,-39.92 -12.33,-73.08 -37.1,-99.42 -24.76,-26.281 -56.88,-39.469 -96.37,-39.469 -38.12,0 -69.12,13.188 -92.98,39.469 -23.87,26.34 -35.8,59.5 -35.8,99.42 v 58.09 c 0,39.8 11.93,72.91 35.8,99.37 23.86,26.51 54.86,39.75 92.98,39.75 39.49,0 71.61,-13.24 96.37,-39.61 24.77,-26.38 37.1,-59.58 37.1,-99.51 v -58.09"
         style="fill:#1d1d1b;fill-opacity:1;fill-rule:nonzero;stroke:none"
         transform="matrix(0.13333333,0,0,-0.13333333,0,793.70667)" />
      <path
         id="path27"
         d="M 4144.82,1110.4 H 4007.05 V 965.898 h -44.19 v 326.682 h 204.84 v -34.82 h -160.65 v -112.59 h 137.77 v -34.77"
         style="fill:#1d1d1b;fill-opacity:1;fill-rule:nonzero;stroke:none"
         transform="matrix(0.13333333,0,0,-0.13333333,0,793.70667)" />
      <path
         id="path28"
         d="M 4398.33,1110.4 H 4260.56 V 965.898 h -44.18 v 326.682 h 204.83 v -34.82 h -160.65 v -112.59 h 137.77 v -34.77"
         style="fill:#1d1d1b;fill-opacity:1;fill-rule:nonzero;stroke:none"
         transform="matrix(0.13333333,0,0,-0.13333333,0,793.70667)" />
      <path
         id="path29"
         d="m 4648.24,1117.35 h -134.17 v -116.91 h 157.05 v -34.542 h -201.24 v 326.682 h 198.78 v -34.82 h -154.59 v -105.64 h 134.17 v -34.77"
         style="fill:#1d1d1b;fill-opacity:1;fill-rule:nonzero;stroke:none"
         transform="matrix(0.13333333,0,0,-0.13333333,0,793.70667)" />
      <path
         id="path30"
         d="m 4901.76,1117.35 h -134.18 v -116.91 h 157.05 v -34.542 h -201.24 v 326.682 h 198.78 v -34.82 h -154.59 v -105.64 h 134.18 v -34.77"
         style="fill:#1d1d1b;fill-opacity:1;fill-rule:nonzero;stroke:none"
         transform="matrix(0.13333333,0,0,-0.13333333,0,793.70667)" />
    </g>
  </g>
</svg>
